<?xml version="1.0" encoding="UTF-8" standalone="no"?>
<!-- Created with Inkscape (http://www.inkscape.org/) -->

<svg
   width="91.494759mm"
   height="12.377518mm"
   viewBox="0 0 91.494759 12.377518"
   version="1.1"
   id="svg5"
   xml:space="preserve"
   xmlns="http://www.w3.org/2000/svg"
   xmlns:svg="http://www.w3.org/2000/svg"><defs
     id="defs2" /><g
     id="layer1"
     transform="translate(-48.947946,-107.38298)"><text
       xml:space="preserve"
       style="font-style:normal;font-variant:normal;font-weight:900;font-stretch:normal;font-size:14.1111px;font-family:Roboto;-inkscape-font-specification:'Roboto, Heavy';font-variant-ligatures:normal;font-variant-caps:normal;font-variant-numeric:normal;font-variant-east-asian:normal;fill:#235784;fill-opacity:1;stroke-width:0.264583"
       x="48.377438"
       y="119.59512"
       id="text236"><tspan
         id="tspan459"
         x="48.377438"
         y="119.59512"
         style="font-style:normal;font-variant:normal;font-weight:900;font-stretch:normal;font-size:14.1111px;font-family:Roboto;-inkscape-font-specification:'Roboto, Heavy';font-variant-ligatures:normal;font-variant-caps:normal;font-variant-numeric:normal;font-variant-east-asian:normal;fill:#235784;fill-opacity:1"><tspan
   style="font-style:normal;font-variant:normal;font-weight:900;font-stretch:normal;font-size:16.9333px;font-family:Roboto;-inkscape-font-specification:'Roboto, Heavy';font-variant-ligatures:normal;font-variant-caps:normal;font-variant-numeric:normal;font-variant-east-asian:normal"
   id="tspan13337">C</tspan>     MBELDEV</tspan></text><g
       style="fill:#235784;fill-opacity:1"
       id="g305"
       transform="matrix(0.84874241,0,0,0.88382863,60.840065,108.30518)"><path
         d="m 4.7550728,6.2639259 -5.33006917,-4.657583 c -0.42053084,-0.3674732 -0.42053084,-0.96326489 0,-1.33073804 0.42053084,-0.36747314 1.10234607,-0.36747314 1.52287687,0 L 7.0393881,5.5985569 c 0.4205308,0.3674731 0.4205308,0.9632647 0,1.3307379 L 0.9478805,12.252247 c -0.4205308,0.367473 -1.10234603,0.367473 -1.52287687,0 -0.42053084,-0.367473 -0.42053084,-0.963265 0,-1.330738 z m 4.0460619,4.0867861 h 8.6146933 c 0.594721,0 1.076836,0.421289 1.076836,0.940974 0,0.519686 -0.482115,0.940974 -1.076836,0.940974 H 8.8011347 c -0.5947203,0 -1.0768366,-0.421288 -1.0768366,-0.940974 0,-0.519685 0.4821163,-0.940974 1.0768366,-0.940974 z"
         id="path296"
         style="fill:#235784;fill-opacity:1;stroke-width:1.00662" /></g></g></svg>
